<svg width="32" height="32" viewBox="0 0 32 32" fill="none" xmlns="http://www.w3.org/2000/svg">
<path fill-rule="evenodd" clip-rule="evenodd" d="M1.45788 4.33583C0.422321 4.8236 -0.021751 6.05851 0.466022 7.09407C0.626454 7.43468 0.775933 7.75084 0.91537 8.04577C1.9399 10.2128 2.42224 11.233 2.7232 12.3736C3.05809 13.6427 3.17129 15.0981 3.29883 18.5223C3.63147 27.4535 12.7972 32.5138 20.5702 30.5502C21.68 30.2699 22.3524 29.1429 22.072 28.0331C21.7917 26.9233 20.6647 26.2508 19.5549 26.5312C13.7707 27.9924 7.65501 24.1075 7.44124 18.368C7.31707 15.0341 7.20391 13.1071 6.7313 11.316C6.32593 9.77968 5.65748 8.36987 4.67488 6.29747C4.52895 5.98969 4.37609 5.66729 4.21613 5.32769C3.72836 4.29213 2.49345 3.84805 1.45788 4.33583Z" fill="url(#paint0_linear_15221_11465)"/>
<path fill-rule="evenodd" clip-rule="evenodd" d="M0.460529 7.08174C0.965756 8.1089 2.208 8.53201 3.23516 8.02679C11.9711 3.72985 19.3479 5.45739 23.4793 9.10742C27.6288 12.7734 28.6537 18.358 25.0028 22.9243C24.2879 23.8184 24.4332 25.1226 25.3273 25.8374C26.2213 26.5523 27.5256 26.407 28.2404 25.5129C33.4897 18.9475 31.7547 10.8872 26.2239 6.00086C20.675 1.09852 11.451 -0.633893 1.40557 4.30711C0.378413 4.81234 -0.0446977 6.05458 0.460529 7.08174Z" fill="url(#paint1_linear_15221_11465)"/>
<path fill-rule="evenodd" clip-rule="evenodd" d="M16.3752 11.6514C17.5046 11.8379 18.2689 12.9047 18.0823 14.0341C17.8711 15.3125 17.9125 15.7875 18.0136 16.069C18.0922 16.2881 18.317 16.6864 19.3813 17.4099C20.328 18.0534 20.5737 19.3425 19.9302 20.2892C19.2866 21.2359 17.9975 21.4816 17.0509 20.8381C15.7068 19.9244 14.6279 18.9064 14.1121 17.4697C13.6187 16.0954 13.775 14.6751 13.9925 13.3585C14.179 12.2291 15.2458 11.4648 16.3752 11.6514Z" fill="url(#paint2_linear_15221_11465)"/>
<defs>
<linearGradient id="paint0_linear_15221_11465" x1="0.0873327" y1="4.9597" x2="23.4417" y2="22.4145" gradientUnits="userSpaceOnUse">
<stop offset="0.0001" stop-color="#098859"/>
<stop offset="0.520833" stop-color="#15BE80"/>
<stop offset="1" stop-color="#0CC883"/>
</linearGradient>
<linearGradient id="paint1_linear_15221_11465" x1="0.275544" y1="2.30207" x2="24.428" y2="26.7017" gradientUnits="userSpaceOnUse">
<stop stop-color="#63D698"/>
<stop offset="1" stop-color="#0CC883"/>
</linearGradient>
<linearGradient id="paint2_linear_15221_11465" x1="14.8573" y1="13.6381" x2="20.3811" y2="20.6857" gradientUnits="userSpaceOnUse">
<stop stop-color="#03AC6E"/>
<stop offset="1" stop-color="#4FD393"/>
</linearGradient>
</defs>
</svg>
