<svg width="321" height="400" viewBox="0 0 321 400" fill="none" xmlns="http://www.w3.org/2000/svg">
<rect x="0.807617" width="320" height="400" rx="20" fill="white"/>
<rect x="46" y="260" width="200" height="20" rx="5" fill="#EEEEEE"/>
<rect x="46" y="300" width="220" height="20" rx="5" fill="#EEEEEE"/>
<rect x="46" y="340" width="160" height="20" rx="5" fill="#EEEEEE"/>
<path fill-rule="evenodd" clip-rule="evenodd" d="M83.2884 81.6791C78.1106 84.1179 75.8903 90.2925 78.3291 95.4703C79.1313 97.1733 79.8787 98.7542 80.5759 100.229C85.6985 111.064 88.1102 116.165 89.615 121.868C91.2895 128.214 91.8555 135.491 92.4932 152.612C94.1564 197.267 139.985 222.569 178.85 212.751C184.399 211.349 187.761 205.714 186.359 200.165C184.957 194.616 179.323 191.254 173.773 192.656C144.852 199.962 114.274 180.538 113.205 151.84C112.584 135.17 112.019 125.535 109.656 116.58C107.629 108.898 104.286 101.849 99.3734 91.4873C98.6438 89.9484 97.8795 88.3364 97.0797 86.6384C94.6408 81.4606 88.4663 79.2402 83.2884 81.6791Z" fill="url(#paint0_linear_15224_11482)"/>
<path fill-rule="evenodd" clip-rule="evenodd" d="M78.3017 95.4086C80.8278 100.544 87.039 102.66 92.1748 100.134C135.855 78.6492 172.738 87.2869 193.395 105.537C214.143 123.867 219.267 151.79 201.013 174.621C197.439 179.092 198.165 185.613 202.635 189.187C207.106 192.761 213.627 192.035 217.201 187.565C243.448 154.737 234.772 114.436 207.118 90.0043C179.374 65.4925 133.254 56.8305 83.0269 81.5355C77.8911 84.0616 75.7755 90.2728 78.3017 95.4086Z" fill="url(#paint1_linear_15224_11482)"/>
<path fill-rule="evenodd" clip-rule="evenodd" d="M157.875 118.257C163.522 119.19 167.344 124.524 166.411 130.17C165.355 136.562 165.562 138.937 166.068 140.345C166.461 141.44 167.585 143.432 172.906 147.049C177.639 150.267 178.868 156.713 175.65 161.446C172.433 166.179 165.987 167.408 161.254 164.19C154.533 159.622 149.139 154.532 146.56 147.348C144.093 140.477 144.874 133.376 145.962 126.792C146.895 121.146 152.229 117.324 157.875 118.257Z" fill="url(#paint2_linear_15224_11482)"/>
<defs>
<linearGradient id="paint0_linear_15224_11482" x1="76.4357" y1="84.7984" x2="193.207" y2="172.072" gradientUnits="userSpaceOnUse">
<stop offset="0.0001" stop-color="#098859"/>
<stop offset="0.520833" stop-color="#15BE80"/>
<stop offset="1" stop-color="#0CC883"/>
</linearGradient>
<linearGradient id="paint1_linear_15224_11482" x1="77.3767" y1="71.5103" x2="198.139" y2="193.508" gradientUnits="userSpaceOnUse">
<stop stop-color="#63D698"/>
<stop offset="1" stop-color="#0CC883"/>
</linearGradient>
<linearGradient id="paint2_linear_15224_11482" x1="150.286" y1="128.19" x2="177.905" y2="163.428" gradientUnits="userSpaceOnUse">
<stop stop-color="#03AC6E"/>
<stop offset="1" stop-color="#4FD393"/>
</linearGradient>
</defs>
</svg>
